<svg xmlns="http://www.w3.org/2000/svg" width="750" height="30"><defs><clipPath id="c"><path d="M186.202 744.21h9.42v-9.42h-9.42v9.42z"/></clipPath><clipPath id="b"><path d="M170.79 744.21h9.42v-9.42h-9.42v9.42z"/></clipPath><clipPath id="a"><path d="M155.38 744.21h9.418v-9.42h-9.42v9.42z"/></clipPath></defs><g><path d="M-8.586-10.102h789.9V39.88h-789.9z" fill="#85b5bb"/><g fill="#ff7050"><path d="M30.605 15.166c0 3.774-3.06 6.833-6.833 6.833-3.774 0-6.833-3.06-6.833-6.834 0-3.774 3.058-6.833 6.832-6.833s6.833 3.06 6.833 6.833" clip-path="url(#a)" opacity=".71"/></g><g fill="#ffed5d"><path d="M52.966 15.226c0 3.774-3.06 6.833-6.833 6.833-3.774 0-6.833-3.06-6.833-6.834 0-3.774 3.06-6.833 6.833-6.833 3.774 0 6.833 3.06 6.833 6.833" clip-path="url(#b)" opacity=".71"/></g><g fill="#93de7f"><path d="M74.873 15.196c0 3.774-3.06 6.833-6.833 6.833-3.774 0-6.833-3.06-6.833-6.834 0-3.774 3.06-6.833 6.833-6.833 3.774 0 6.833 3.06 6.833 6.833" clip-path="url(#c)" opacity=".71"/></g></g></svg>