<svg xmlns="http://www.w3.org/2000/svg" version="1.2" width="880.63" height="385.373"><defs><clipPath id="c"><path d="M186.202 744.21h9.42v-9.42h-9.42v9.42z"/></clipPath><clipPath id="b"><path d="M170.79 744.21h9.42v-9.42h-9.42v9.42z"/></clipPath><clipPath id="a"><path d="M155.38 744.21h9.418v-9.42h-9.42v9.42z"/></clipPath></defs><g transform="matrix(2.516 0 0 2.516 -185.112 -934.786)"><rect width="350" height="22.806" rx="3" x="73.571" y="371.524" fill="#85b5bb"/><g fill="#ff7050"><path d="M88.28 377.68c0 2.09-1.696 3.785-3.787 3.785-2.09 0-3.786-1.695-3.786-3.786 0-2.092 1.695-3.787 3.786-3.787 2.09 0 3.786 1.695 3.786 3.786" clip-path="url(#a)" opacity=".71"/></g><g fill="#ffed5d"><path d="M100.676 377.68c0 2.09-1.695 3.785-3.786 3.785-2.09 0-3.786-1.695-3.786-3.786 0-2.092 1.695-3.787 3.786-3.787 2.09 0 3.786 1.695 3.786 3.786" clip-path="url(#b)" opacity=".71"/></g><g fill="#93de7f"><path d="M112.82 377.68c0 2.09-1.694 3.785-3.785 3.785-2.09 0-3.786-1.695-3.786-3.786 0-2.092 1.694-3.787 3.785-3.787 2.09 0 3.786 1.695 3.786 3.786" clip-path="url(#c)" opacity=".71"/></g><path d="M423.57 523.032c0 .914-1.094 1.656-2.447 1.656H76.02c-1.353 0-2.45-.742-2.45-1.656V384.387h350v138.645z" fill="#36535a"/></g><path fill="#36535a" d="M343.223 223.43h43.507v147.44h-43.507z"/></svg>